# xmcd
#
# Track frame offsets: 
#        150
#        18636
#        37747
#        61257
#        81583
#        103745
#        124990
#        146545
#        169545
#        183992
#        201174
#        219353
#
# Disc length: 3133 seconds
#
# Revision: 0
# Processed by: cddbd v1.5.2PL0 Copyright (c) Steve Scherf et al.
# Submitted via: ExactAudioCopy v1.0b4
#
DISCID=a60c3b0c
DTITLE=Ron Sayer Jr. and Charlotte Joyc - Hard To Please
DYEAR=2013
DGENRE=Blues Rock
TTITLE0=Hard To Please
TTITLE1=Cold Shoulder To Cry On
TTITLE2=Wolf In Sheep's Clothes
TTITLE3=Off The Road
TTITLE4=Time For Goodbye
TTITLE5=Do You Love Me Like You Love You Love Yourself
TTITLE6=Mr. Weatherman
TTITLE7=No One Left To Blame
TTITLE8=Don't Mess Around
TTITLE9=One Of Your Looks
TTITLE10=It Ain't Up To You
TTITLE11=Tell Me Something I Don't Know
EXTD=
EXTT0=
EXTT1=
EXTT2=
EXTT3=
EXTT4=
EXTT5=
EXTT6=
EXTT7=
EXTT8=
EXTT9=
EXTT10=
EXTT11=
PLAYORDER=
